<svg id="Capa_1" enable-background="new 0 0 512 512" height="512" viewBox="0 0 512 512" width="512" xmlns="http://www.w3.org/2000/svg"><g><g><g><g><g><g><g><circle cx="256" cy="256" fill="#ff9500" r="256"/></g></g></g></g></g></g><path d="m256 512c140.733 0 254.943-113.561 255.992-254.047l-175.497-175.497-10.111 55.047-54.746-54.746-16.551 48.608-48.909-48.909-39.125 413.67c27.706 10.265 57.671 15.874 88.947 15.874z" fill="#fe6a16"/><g><path d="m240.362 82.757h31.276v69.184h-31.276z" fill="#ffce00"/></g><g><path d="m256.121 82.757h15.517v69.184h-15.517z" fill="#fdba12"/></g><g><path d="m228.634 136.303h54.733v144.651h-54.733z" fill="#2fddd0"/></g><g><path d="m256.121 136.302h27.246v144.651h-27.246z" fill="#1cadb5"/></g><g><g><path d="m305.52 82.757h31.276v69.184h-31.276z" fill="#ffce00"/></g><g><path d="m293.792 136.303h54.733v144.651h-54.733z" fill="#d13400"/></g><g><path d="m175.204 82.757h31.276v69.184h-31.276z" fill="#ffce00"/></g><g><path d="m163.475 136.303h54.733v144.651h-54.733z" fill="#7584f2"/></g></g><g><path d="m155.453 491.499c30.867 13.196 64.854 20.501 100.547 20.501s69.68-7.305 100.547-20.501v-220.298h-201.094z" fill="#636978"/></g><g><path d="m356.547 271.201h-100.426v240.798c35.648-.017 69.594-7.318 100.426-20.499z" fill="#414952"/></g></g></svg>