<svg id="Capa_1" enable-background="new 0 0 512 512" height="512" viewBox="0 0 512 512" width="512" xmlns="http://www.w3.org/2000/svg"><g><g><path d="m471.366 24.067c0-9.149-7.417-16.567-16.567-16.567s-16.567 7.417-16.567 16.567v138.533h33.133v-138.533z" fill="#e9f5fc"/><path d="m454.8 7.5c-4.471 0-8.52 1.779-11.5 4.657 3.119 3.013 5.067 7.23 5.067 11.909v138.534h23v-138.533c-.001-9.15-7.418-16.567-16.567-16.567z" fill="#c5e0fa"/><g><path d="m415.039 504.5c-31.059 0-56.326-25.269-56.326-56.327v-268.379c0-12.789-10.405-23.194-23.194-23.194s-23.193 10.405-23.193 23.194v268.379c0 31.059-25.269 56.327-56.327 56.327-31.059 0-56.327-25.269-56.327-56.327v-268.379c0-12.789-10.404-23.194-23.193-23.194s-23.194 10.405-23.194 23.194v268.379c0 31.059-25.268 56.327-56.327 56.327s-56.327-25.269-56.327-56.327v-116.34h33.133v116.34c0 12.789 10.404 23.194 23.193 23.194s23.193-10.405 23.193-23.194v-268.379c0-31.058 25.268-56.327 56.327-56.327s56.327 25.269 56.327 56.327v268.379c0 12.789 10.404 23.194 23.193 23.194s23.194-10.405 23.194-23.194v-268.379c0-31.058 25.268-56.327 56.326-56.327s56.327 25.269 56.327 56.327v268.379c0 12.789 10.405 23.194 23.193 23.194 12.789 0 23.194-10.405 23.194-23.194v-116.34h33.133v116.34c.002 31.058-25.266 56.327-56.325 56.327z" fill="#1c3173"/></g><g><path d="m448.366 331.833v116.34c0 27.118-19.265 49.819-44.827 55.143 3.714.773 7.56 1.184 11.5 1.184 31.059 0 56.327-25.269 56.327-56.327v-116.34z" fill="#162664"/></g><g fill="#7fe0fc"><path d="m438.233 156.6h33.133c9.15 0 16.567 7.417 16.567 16.567v114.011c0 1.286-.299 2.554-.874 3.704l-6.534 13.069c-.575 1.15-.875 2.419-.875 3.704v22.895c0 4.575-3.709 8.283-8.283 8.283h-33.133c-4.575 0-8.283-3.709-8.283-8.283v-22.895c0-1.286-.299-2.554-.875-3.704l-6.534-13.069c-.575-1.15-.874-2.418-.874-3.704v-114.011c-.002-9.15 7.416-16.567 16.565-16.567z"/><path d="m40.633 371.967h33.133v33.133h-33.133z"/><path d="m438.233 371.967h33.133v33.133h-33.133z"/></g><path d="m448.366 371.967h23v33.133h-23z" fill="#6cbef2"/><path d="m471.366 156.6h-23c9.149 0 16.567 7.417 16.567 16.567v114.011c0 1.286-.299 2.554-.874 3.704l-6.534 13.069c-.575 1.15-.874 2.419-.874 3.704v22.895c0 4.575-3.709 8.283-8.283 8.283h23c4.575 0 8.283-3.709 8.283-8.283v-22.895c0-1.286.299-2.554.874-3.704l6.534-13.069c.575-1.15.874-2.418.874-3.704v-114.011c0-9.15-7.417-16.567-16.567-16.567z" fill="#6cbef2"/><path d="m73.766 24.067c0-9.15-7.417-16.567-16.566-16.567-9.15 0-16.567 7.417-16.567 16.567v138.533h33.133z" fill="#e9f5fc"/><path d="m57.2 7.5c-4.471 0-8.52 1.779-11.5 4.657 3.119 3.013 5.067 7.23 5.067 11.909v138.534h23v-138.533c-.001-9.15-7.418-16.567-16.567-16.567z" fill="#c5e0fa"/><path d="m40.633 156.6h33.133c9.149 0 16.567 7.417 16.567 16.567v114.011c0 1.286-.299 2.554-.874 3.704l-6.534 13.069c-.575 1.15-.874 2.419-.874 3.704v22.895c0 4.575-3.709 8.283-8.283 8.283h-33.135c-4.575 0-8.283-3.709-8.283-8.283v-22.895c0-1.286-.299-2.554-.875-3.704l-6.534-13.069c-.575-1.15-.875-2.418-.875-3.704v-114.011c0-9.15 7.418-16.567 16.567-16.567z" fill="#7fe0fc"/><path d="m73.766 156.6h-23c9.149 0 16.567 7.417 16.567 16.567v114.011c0 1.286-.299 2.554-.874 3.704l-6.534 13.069c-.575 1.15-.875 2.419-.875 3.704v22.895c0 4.575-3.709 8.283-8.283 8.283h23c4.575 0 8.283-3.709 8.283-8.283v-22.895c0-1.286.299-2.554.874-3.704l6.534-13.069c.575-1.15.874-2.418.874-3.704v-114.011c.001-9.15-7.416-16.567-16.566-16.567z" fill="#6cbef2"/></g><path d="m478.867 150.303v-126.236c0-13.271-10.797-24.067-24.067-24.067s-24.066 10.796-24.066 24.067v126.236c-9.608 3.16-16.566 12.212-16.566 22.864v114.011c0 2.439.576 4.879 1.666 7.059l6.534 13.07c.055.108.083.229.083.349v22.895c0 5.99 3.355 11.211 8.283 13.884v103.739c0 8.654-7.04 15.694-15.693 15.694s-15.693-7.04-15.693-15.694v-268.38c0-35.194-28.633-63.827-63.827-63.827s-63.826 28.632-63.826 63.827v19.339c0 4.142 3.357 7.5 7.5 7.5 4.142 0 7.5-3.358 7.5-7.5v-19.339c0-26.923 21.903-48.827 48.826-48.827 26.924 0 48.827 21.903 48.827 48.827v268.379c0 16.925 13.768 30.694 30.693 30.694s30.693-13.769 30.693-30.694v-35.573h18.134v35.573c0 26.923-21.903 48.827-48.827 48.827-26.923 0-48.826-21.904-48.826-48.827v-268.379c0-16.924-13.77-30.693-30.694-30.693s-30.692 13.769-30.692 30.693v268.379c-.002 26.923-21.905 48.827-48.829 48.827-26.923 0-48.827-21.904-48.827-48.827v-268.379c0-16.924-13.769-30.693-30.693-30.693s-30.693 13.769-30.693 30.693v268.379c0 26.923-21.903 48.827-48.827 48.827-26.923 0-48.827-21.904-48.827-48.827v-35.573h18.133v35.573c0 16.925 13.769 30.694 30.693 30.694s30.693-13.769 30.693-30.694v-268.379c0-26.923 21.903-48.827 48.827-48.827 26.923 0 48.827 21.903 48.827 48.827v268.379c0 16.925 13.769 30.694 30.693 30.694 16.925 0 30.693-13.769 30.693-30.694v-219.173c0-4.142-3.358-7.5-7.5-7.5-4.143 0-7.5 3.358-7.5 7.5v219.173c0 8.654-7.04 15.694-15.693 15.694s-15.693-7.04-15.693-15.694v-268.379c0-35.194-28.632-63.827-63.827-63.827-35.194 0-63.827 28.632-63.827 63.827v268.379c0 8.654-7.04 15.694-15.693 15.694s-15.693-7.04-15.693-15.694v-103.739c4.929-2.673 8.283-7.894 8.283-13.884v-22.895c0-.121.029-.242.083-.35l6.536-13.071c1.089-2.18 1.665-4.621 1.665-7.056v-114.011c0-10.652-6.959-19.704-16.567-22.864v-126.236c0-13.271-10.796-24.067-24.066-24.067s-24.067 10.796-24.067 24.067v126.236c-9.608 3.16-16.566 12.212-16.566 22.864v25.967c0 4.142 3.358 7.5 7.5 7.5s7.5-3.358 7.5-7.5v-25.967c0-4.999 4.067-9.066 9.066-9.066h33.133c4.999 0 9.067 4.067 9.067 9.066v91.9h-51.266v-35.817c0-4.142-3.358-7.5-7.5-7.5s-7.5 3.358-7.5 7.5v57.928c0 2.438.576 4.879 1.666 7.059l6.535 13.07c.054.107.082.228.082.349v22.895c0 5.99 3.354 11.211 8.283 13.884v103.739c0 35.193 28.632 63.826 63.827 63.826 35.194 0 63.827-28.633 63.827-63.827v-268.379c0-8.653 7.04-15.693 15.693-15.693s15.693 7.04 15.693 15.693v268.379c0 35.194 28.632 63.827 63.827 63.827 35.194 0 63.827-28.633 63.827-63.827v-268.379c0-8.653 7.04-15.693 15.692-15.693 8.654 0 15.694 7.04 15.694 15.693v268.379c0 35.194 28.632 63.827 63.826 63.827s63.827-28.633 63.827-63.827v-103.739c4.929-2.673 8.283-7.894 8.283-13.884v-22.895c0-.122.028-.242.082-.35l6.534-13.069c1.091-2.181 1.667-4.622 1.667-7.059v-114.01c.001-10.652-6.957-19.704-16.565-22.864zm-430.734-102.17h18.133v18.133h-18.133zm9.067-33.133c4.999 0 9.066 4.067 9.066 9.067v9.066h-18.133v-9.066c0-5 4.067-9.067 9.067-9.067zm-9.067 134.1v-67.833h18.133v67.833zm18.133 215.367h-18.133v-18.133h18.133zm-18.133 33.133v-18.133h18.133v18.133zm-16.566-110.422v-7.111h51.267v7.111c0 .121-.029.243-.082.351l-6.536 13.07c-1.089 2.181-1.666 4.621-1.666 7.057v22.895c0 .432-.352.784-.783.784h-33.134c-.432 0-.783-.352-.783-.784v-22.895c0-2.438-.576-4.879-1.667-7.058l-6.534-13.069c-.054-.109-.082-.23-.082-.351zm432.3-220.911h-18.134v-18.134h18.134zm-18.134 15h18.134v67.833h-18.134zm9.067-66.267c5 0 9.067 4.067 9.067 9.067v9.066h-18.134v-9.066c0-5 4.068-9.067 9.067-9.067zm-16.567 149.1h33.134c4.999 0 9.066 4.067 9.066 9.066v91.9h-51.267v-91.9c.001-4.999 4.068-9.066 9.067-9.066zm25.634 200.367h-18.134v-18.133h18.134zm-18.134 33.133v-18.133h18.134v18.133zm34.617-110.072-6.534 13.067c-1.09 2.18-1.666 4.621-1.666 7.06v22.895c0 .432-.352.784-.783.784h-33.134c-.432 0-.783-.352-.783-.784v-22.895c0-2.438-.576-4.879-1.667-7.058l-6.534-13.069c-.054-.108-.082-.229-.082-.351v-7.111h51.267v7.111c-.001.121-.029.242-.084.351z"/></g></svg>