<svg id="Layer_1" enable-background="new 0 0 512 512" height="512" viewBox="0 0 512 512" width="512" xmlns="http://www.w3.org/2000/svg"><path d="m96 112v96h-80c-8.84 0-16-7.16-16-16v-64c0-8.84 7.16-16 16-16z" fill="#efd66c"/><path d="m96 240v160h-80c-8.84 0-16-7.16-16-16v-128c0-8.84 7.16-16 16-16z" fill="#efd66c"/><path d="m512 112v288c0 8.84-7.16 16-16 16h-416c-8.84 0-16-7.16-16-16v-288c0-8.84 7.143-16 16-16h416c8.84 0 16 7.16 16 16z" fill="#90c94f"/><path d="m512 112v224c0 8.84-7.16 16-16 16h-128c-149.88 0-274.44-108.48-299.43-251.21 2.91-2.96 6.96-4.79 11.43-4.79h416c8.84 0 16 7.16 16 16z" fill="#99d856"/><path d="m320 176v160c0 8.84-7.16 16-16 16h-64c-8.84 0-16-7.16-16-16v-160c0-8.84 7.16-16 16-16h64c8.84 0 16 7.16 16 16z" fill="#b2b2b2"/><path d="m448 176v160c0 8.84-7.16 16-16 16h-64c-8.84 0-16-7.16-16-16v-160c0-8.84 7.16-16 16-16h64c8.84 0 16 7.16 16 16z" fill="#b2b2b2"/><path d="m496 96h-416c-8.84 0-16 7.16-16 16h-48c-8.84 0-16 7.16-16 16v64c0 8.84 7.16 16 16 16h48v32h-48c-8.84 0-16 7.16-16 16v128c0 8.84 7.16 16 16 16h48c0 8.84 7.16 16 16 16h416c8.84 0 16-7.16 16-16v-288c0-8.84-7.16-16-16-16zm-432 272h-32v-32h32zm0-64h-32v-32h32zm0-128h-32v-32h32zm416 208h-384v-256h384z"/><path d="m432 160h-64c-8.84 0-16 7.16-16 16v160c0 8.84 7.16 16 16 16h64c8.84 0 16-7.16 16-16v-160c0-8.84-7.16-16-16-16zm-16 160h-32v-128h32z"/><path d="m304 160h-64c-8.84 0-16 7.16-16 16v160c0 8.84 7.16 16 16 16h64c8.84 0 16-7.16 16-16v-160c0-8.84-7.16-16-16-16zm-16 160h-32v-128h32z"/><path d="m144 208h32c8.836 0 16-7.164 16-16s-7.164-16-16-16h-32c-8.836 0-16 7.164-16 16s7.164 16 16 16z"/><path d="m144 272h32c8.836 0 16-7.164 16-16s-7.164-16-16-16h-32c-8.836 0-16 7.164-16 16s7.164 16 16 16z"/><path d="m144 336h32c8.836 0 16-7.164 16-16s-7.164-16-16-16h-32c-8.836 0-16 7.164-16 16s7.164 16 16 16z"/></svg>