<svg height="512" viewBox="0 0 32 58" width="512" xmlns="http://www.w3.org/2000/svg"><g id="Page-1" fill="none" fill-rule="evenodd"><g id="007---Ram" fill-rule="nonzero"><path id="Shape" d="m26 0v58h-24c-1.10320187-.0032948-1.9967052-.8967981-2-2v-54c.0032948-1.10320187.89679813-1.9967052 2-2z" fill="#24ae5f"/><path id="Shape" d="m32 51v5c-.0032948 1.1032019-.8967981 1.9967052-2 2h-6v-7z" fill="#4fba6f"/><path id="Rectangle-path" d="m24 47h8v4h-8z" fill="#71c285"/><path id="Rectangle-path" d="m24 43h8v4h-8z" fill="#4fba6f"/><path id="Shape" d="m28 37c.0081672 1.1011688.8988312 1.9918328 2 2h1c.5522847 0 1 .4477153 1 1v3h-8v-12h8v3c0 .5522847-.4477153 1-1 1h-1c-1.1032019.0032948-1.9967052.8967981-2 2z" fill="#71c285"/><path id="Rectangle-path" d="m24 27h8v4h-8z" fill="#4fba6f"/><path id="Rectangle-path" d="m24 23h8v4h-8z" fill="#71c285"/><path id="Rectangle-path" d="m24 19h8v4h-8z" fill="#4fba6f"/><path id="Rectangle-path" d="m24 15h8v4h-8z" fill="#71c285"/><path id="Rectangle-path" d="m24 11h8v4h-8z" fill="#4fba6f"/><path id="Rectangle-path" d="m24 7h8v4h-8z" fill="#71c285"/><path id="Shape" d="m32 2v5h-8v-7h6c1.1032019.0032948 1.9967052.89679813 2 2z" fill="#4fba6f"/><circle id="Oval" cx="28" cy="55" fill="#4c8056" r="1"/><circle id="Oval" cx="28" cy="3" fill="#4c8056" r="1"/><g fill="#f3d55b"><path id="Shape" d="m6 5c-.55228475 0-1-.44771525-1-1v-1c0-.55228475.44771525-1 1-1s1 .44771525 1 1v1c0 .55228475-.44771525 1-1 1z"/><path id="Shape" d="m6 14c-.55228475 0-1-.4477153-1-1v-1c0-.5522847.44771525-1 1-1s1 .4477153 1 1v1c0 .5522847-.44771525 1-1 1z"/><path id="Shape" d="m10 5c-.55228475 0-1-.44771525-1-1v-1c0-.55228475.44771525-1 1-1 .5522847 0 1 .44771525 1 1v1c0 .55228475-.4477153 1-1 1z"/><path id="Shape" d="m10 14c-.55228475 0-1-.4477153-1-1v-1c0-.5522847.44771525-1 1-1 .5522847 0 1 .4477153 1 1v1c0 .5522847-.4477153 1-1 1z"/><path id="Shape" d="m14 5c-.5522847 0-1-.44771525-1-1v-1c0-.55228475.4477153-1 1-1s1 .44771525 1 1v1c0 .55228475-.4477153 1-1 1z"/><path id="Shape" d="m14 14c-.5522847 0-1-.4477153-1-1v-1c0-.5522847.4477153-1 1-1s1 .4477153 1 1v1c0 .5522847-.4477153 1-1 1z"/><path id="Shape" d="m18 5c-.5522847 0-1-.44771525-1-1v-1c0-.55228475.4477153-1 1-1s1 .44771525 1 1v1c0 .55228475-.4477153 1-1 1z"/><path id="Shape" d="m18 14c-.5522847 0-1-.4477153-1-1v-1c0-.5522847.4477153-1 1-1s1 .4477153 1 1v1c0 .5522847-.4477153 1-1 1z"/></g><rect id="Rectangle-path" fill="#35495e" height="8" rx="1" width="16" x="4" y="4"/><path id="Shape" d="m17 4s-9.94 1.81-10.92 8h-1.08c-.55228475 0-1-.4477153-1-1v-6c0-.55228475.44771525-1 1-1z" fill="#3f5c6c"/><path id="Shape" d="m6 19c-.55228475 0-1-.4477153-1-1v-1c0-.5522847.44771525-1 1-1s1 .4477153 1 1v1c0 .5522847-.44771525 1-1 1z" fill="#f3d55b"/><path id="Shape" d="m6 28c-.55228475 0-1-.4477153-1-1v-1c0-.5522847.44771525-1 1-1s1 .4477153 1 1v1c0 .5522847-.44771525 1-1 1z" fill="#f3d55b"/><path id="Shape" d="m10 19c-.55228475 0-1-.4477153-1-1v-1c0-.5522847.44771525-1 1-1 .5522847 0 1 .4477153 1 1v1c0 .5522847-.4477153 1-1 1z" fill="#f3d55b"/><path id="Shape" d="m10 28c-.55228475 0-1-.4477153-1-1v-1c0-.5522847.44771525-1 1-1 .5522847 0 1 .4477153 1 1v1c0 .5522847-.4477153 1-1 1z" fill="#f3d55b"/><path id="Shape" d="m14 19c-.5522847 0-1-.4477153-1-1v-1c0-.5522847.4477153-1 1-1s1 .4477153 1 1v1c0 .5522847-.4477153 1-1 1z" fill="#f3d55b"/><path id="Shape" d="m14 28c-.5522847 0-1-.4477153-1-1v-1c0-.5522847.4477153-1 1-1s1 .4477153 1 1v1c0 .5522847-.4477153 1-1 1z" fill="#f3d55b"/><path id="Shape" d="m18 19c-.5522847 0-1-.4477153-1-1v-1c0-.5522847.4477153-1 1-1s1 .4477153 1 1v1c0 .5522847-.4477153 1-1 1z" fill="#f3d55b"/><path id="Shape" d="m18 28c-.5522847 0-1-.4477153-1-1v-1c0-.5522847.4477153-1 1-1s1 .4477153 1 1v1c0 .5522847-.4477153 1-1 1z" fill="#f3d55b"/><rect id="Rectangle-path" fill="#35495e" height="8" rx="1" width="16" x="4" y="18"/><path id="Shape" d="m17 18s-9.94 1.81-10.92 8h-1.08c-.55228475 0-1-.4477153-1-1v-6c0-.5522847.44771525-1 1-1z" fill="#3f5c6c"/><path id="Shape" d="m6 33c-.55228475 0-1-.4477153-1-1v-1c0-.5522847.44771525-1 1-1s1 .4477153 1 1v1c0 .5522847-.44771525 1-1 1z" fill="#f3d55b"/><path id="Shape" d="m6 42c-.55228475 0-1-.4477153-1-1v-1c0-.5522847.44771525-1 1-1s1 .4477153 1 1v1c0 .5522847-.44771525 1-1 1z" fill="#f3d55b"/><path id="Shape" d="m10 33c-.55228475 0-1-.4477153-1-1v-1c0-.5522847.44771525-1 1-1 .5522847 0 1 .4477153 1 1v1c0 .5522847-.4477153 1-1 1z" fill="#f3d55b"/><path id="Shape" d="m10 42c-.55228475 0-1-.4477153-1-1v-1c0-.5522847.44771525-1 1-1 .5522847 0 1 .4477153 1 1v1c0 .5522847-.4477153 1-1 1z" fill="#f3d55b"/><path id="Shape" d="m14 33c-.5522847 0-1-.4477153-1-1v-1c0-.5522847.4477153-1 1-1s1 .4477153 1 1v1c0 .5522847-.4477153 1-1 1z" fill="#f3d55b"/><path id="Shape" d="m14 42c-.5522847 0-1-.4477153-1-1v-1c0-.5522847.4477153-1 1-1s1 .4477153 1 1v1c0 .5522847-.4477153 1-1 1z" fill="#f3d55b"/><path id="Shape" d="m18 33c-.5522847 0-1-.4477153-1-1v-1c0-.5522847.4477153-1 1-1s1 .4477153 1 1v1c0 .5522847-.4477153 1-1 1z" fill="#f3d55b"/><path id="Shape" d="m18 42c-.5522847 0-1-.4477153-1-1v-1c0-.5522847.4477153-1 1-1s1 .4477153 1 1v1c0 .5522847-.4477153 1-1 1z" fill="#f3d55b"/><rect id="Rectangle-path" fill="#35495e" height="8" rx="1" width="16" x="4" y="32"/><path id="Shape" d="m17 32s-9.94 1.81-10.92 8h-1.08c-.55228475 0-1-.4477153-1-1v-6c0-.5522847.44771525-1 1-1z" fill="#3f5c6c"/><path id="Shape" d="m6 47c-.55228475 0-1-.4477153-1-1v-1c0-.5522847.44771525-1 1-1s1 .4477153 1 1v1c0 .5522847-.44771525 1-1 1z" fill="#f3d55b"/><path id="Shape" d="m6 56c-.55228475 0-1-.4477153-1-1v-1c0-.5522847.44771525-1 1-1s1 .4477153 1 1v1c0 .5522847-.44771525 1-1 1z" fill="#f3d55b"/><path id="Shape" d="m10 47c-.55228475 0-1-.4477153-1-1v-1c0-.5522847.44771525-1 1-1 .5522847 0 1 .4477153 1 1v1c0 .5522847-.4477153 1-1 1z" fill="#f3d55b"/><path id="Shape" d="m10 56c-.55228475 0-1-.4477153-1-1v-1c0-.5522847.44771525-1 1-1 .5522847 0 1 .4477153 1 1v1c0 .5522847-.4477153 1-1 1z" fill="#f3d55b"/><path id="Shape" d="m14 47c-.5522847 0-1-.4477153-1-1v-1c0-.5522847.4477153-1 1-1s1 .4477153 1 1v1c0 .5522847-.4477153 1-1 1z" fill="#f3d55b"/><path id="Shape" d="m14 56c-.5522847 0-1-.4477153-1-1v-1c0-.5522847.4477153-1 1-1s1 .4477153 1 1v1c0 .5522847-.4477153 1-1 1z" fill="#f3d55b"/><path id="Shape" d="m18 47c-.5522847 0-1-.4477153-1-1v-1c0-.5522847.4477153-1 1-1s1 .4477153 1 1v1c0 .5522847-.4477153 1-1 1z" fill="#f3d55b"/><path id="Shape" d="m18 56c-.5522847 0-1-.4477153-1-1v-1c0-.5522847.4477153-1 1-1s1 .4477153 1 1v1c0 .5522847-.4477153 1-1 1z" fill="#f3d55b"/><rect id="Rectangle-path" fill="#35495e" height="8" rx="1" width="16" x="4" y="46"/><path id="Shape" d="m17 46s-9.94 1.81-10.92 8h-1.08c-.55228475 0-1-.4477153-1-1v-6c0-.5522847.44771525-1 1-1z" fill="#3f5c6c"/></g></g></svg>