<svg id="Capa_1" enable-background="new 0 0 512 512" height="512" viewBox="0 0 512 512" width="512" xmlns="http://www.w3.org/2000/svg"><g><path d="m437.02 74.98c-48.353-48.351-112.64-74.98-181.02-74.98s-132.667 26.629-181.02 74.98c-48.351 48.353-74.98 112.64-74.98 181.02s26.629 132.667 74.98 181.02c48.353 48.351 112.64 74.98 181.02 74.98s132.667-26.629 181.02-74.98c48.351-48.353 74.98-112.64 74.98-181.02s-26.629-132.667-74.98-181.02zm-181.02 407.02c-124.617 0-226-101.383-226-226s101.383-226 226-226 226 101.383 226 226-101.383 226-226 226z"/><path d="m448 247-60-80c-2.833-3.777-7.279-6-12-6s-9.167 2.223-12 6l-60 80c-3.409 4.545-3.958 10.626-1.417 15.708s7.735 8.292 13.417 8.292h13.493c-6.969 34.19-37.274 60-73.493 60-41.355 0-75-33.645-75-75s33.645-75 75-75c12.807 0 25.084 3.244 36.489 9.644 6.557 3.677 14.827 1.934 19.339-4.082l36.282-48.375c2.511-3.348 3.509-7.592 2.753-11.707-.755-4.116-3.195-7.729-6.73-9.967-26.366-16.691-56.842-25.513-88.133-25.513-90.981 0-165 74.019-165 165s74.019 165 165 165c85.928 0 156.725-66.018 164.324-150h15.676c5.682 0 10.875-3.21 13.417-8.292s1.992-11.163-1.417-15.708zm-57 9c0 74.439-60.561 135-135 135s-135-60.561-135-135 60.561-135 135-135c20.107 0 39.801 4.45 57.771 12.972l-18.562 24.75c-12.489-5.076-25.831-7.722-39.209-7.722-57.897 0-105 47.103-105 105s47.103 105 105 105 105-47.103 105-105c0-8.284-6.716-15-15-15l30-40 30 40c-8.284 0-15 6.716-15 15z"/></g></svg>