<?xml version="1.0" encoding="iso-8859-1"?>
<!-- Generator: Adobe Illustrator 19.0.0, SVG Export Plug-In . SVG Version: 6.00 Build 0)  -->
<svg version="1.1" id="Capa_1" xmlns="http://www.w3.org/2000/svg" xmlns:xlink="http://www.w3.org/1999/xlink" x="0px" y="0px"
	 viewBox="0 0 511.969 511.969" style="enable-background:new 0 0 511.969 511.969;" xml:space="preserve">
<rect x="359.974" y="115.995" style="fill:#ED5565;" width="31.998" height="260.69"/>
<g style="opacity:0.2;">
	<path d="M391.977,376.688v-50.277c-6.859-19.265-17.813-36.592-31.998-50.739v56.316c5.141,12.312,7.998,25.819,7.998,39.99
		c0,1.594-0.172,3.14-0.242,4.71H391.977z"/>
</g>
<path style="fill:#ED5565;" d="M255.981,235.986c-41.74,0-79.046,18.851-103.99,48.45V115.994h-31.998v260.694h0.238
	c2.504,72.895,62.234,131.273,135.75,131.273c75.109,0,135.988-60.887,135.988-135.983
	C391.969,296.874,331.09,235.986,255.981,235.986z M255.981,475.971c-57.403,0-103.947-46.536-103.99-103.915V371.9
	c0.043-57.388,46.587-103.916,103.99-103.916c57.43,0,103.998,46.567,103.998,103.994
	C359.978,429.396,313.41,475.971,255.981,475.971z"/>
<g style="opacity:0.4;">
	<path style="fill:#FFFFFF;" d="M259.98,475.768c1.336,0.055,2.648,0.203,4,0.203c57.43,0,103.996-46.575,103.996-103.993
		c0-57.427-46.566-103.994-103.996-103.994c-1.352,0-2.664,0.148-4,0.203c55.563,2.117,99.998,47.716,99.998,103.791
		C359.978,428.045,315.543,473.651,259.98,475.768z"/>
	<path style="fill:#FFFFFF;" d="M128.231,376.688h-0.238V123.993h-8v252.695h0.238c2.504,72.895,62.234,131.273,135.75,131.273
		c1.336,0,2.633-0.164,3.957-0.203C188.306,505.649,130.688,448.231,128.231,376.688z"/>
</g>
<rect x="87.995" y="4.005" style="fill:#656D78;" width="95.99" height="111.99"/>
<rect x="119.995" y="35.995" style="fill:#E6E9ED;" width="31.998" height="39.997"/>
<rect x="111.995" y="4.005" style="fill:#CCD1D9;" width="47.997" height="31.998"/>
<g style="opacity:0.2;">
	<rect x="87.995" y="4.005" style="fill:#FFFFFF;" width="7.992" height="111.99"/>
</g>
<g style="opacity:0.2;">
	<rect x="175.995" y="4.005" width="7.992" height="111.99"/>
</g>
<g style="opacity:0.7;">
	<rect x="111.995" y="4.005" style="fill:#FFFFFF;" width="8" height="31.998"/>
</g>
<g style="opacity:0.2;">
	<rect x="151.995" y="4.005" width="8" height="31.998"/>
</g>
<g style="opacity:0.2;">
	<rect x="143.995" y="35.995" width="8" height="39.997"/>
</g>
<rect x="119.995" y="35.995" style="fill:#FFFFFF;" width="8" height="39.997"/>
<rect x="327.984" y="4.005" style="fill:#656D78;" width="95.99" height="111.99"/>
<rect x="359.974" y="35.995" style="fill:#E6E9ED;" width="31.998" height="39.997"/>
<rect x="351.974" y="4.005" style="fill:#CCD1D9;" width="47.996" height="31.998"/>
<g style="opacity:0.2;">
	<rect x="327.984" y="4.005" style="fill:#FFFFFF;" width="7.99" height="111.99"/>
</g>
<g style="opacity:0.2;">
	<rect x="415.984" y="4.005" width="7.992" height="111.99"/>
</g>
<g style="opacity:0.7;">
	<rect x="351.974" y="4.005" style="fill:#FFFFFF;" width="8" height="31.998"/>
</g>
<g style="opacity:0.2;">
	<rect x="391.974" y="4.005" width="7.998" height="31.998"/>
</g>
<g style="opacity:0.2;">
	<rect x="383.974" y="35.995" width="8" height="39.997"/>
</g>
<rect x="359.974" y="35.995" style="fill:#FFFFFF;" width="7.998" height="39.997"/>
<g style="opacity:0.2;">
	<rect x="119.995" y="115.995" width="31.998" height="7.999"/>
</g>
<g style="opacity:0.2;">
	<rect x="359.974" y="115.995" width="31.998" height="7.999"/>
</g>
<g style="opacity:0.2;">
	<path d="M151.991,284.436V371.9c0.012-14.14,2.867-27.608,7.992-39.896v-56.09C157.23,278.663,154.503,281.452,151.991,284.436z"/>
	<path d="M151.991,372.056v4.632h0.238C152.159,375.141,151.991,373.619,151.991,372.056z"/>
</g>
<g style="opacity:0.4;">
	<path style="fill:#FFFFFF;" d="M367.977,284.444V123.993h-7.998v151.679C362.784,278.467,365.431,281.413,367.977,284.444z"/>
</g>
<g>
	<path style="fill:#3A3847;" d="M87.995,119.993c-2.211,0-4-1.789-4-4V4.001c0-2.211,1.789-4,4-4s4,1.789,4,4v111.993
		C91.995,118.204,90.206,119.993,87.995,119.993z"/>
	<path style="fill:#3A3847;" d="M183.989,119.993c-2.211,0-4-1.789-4-4V4.001c0-2.211,1.789-4,4-4s4,1.789,4,4v111.993
		C187.989,118.204,186.2,119.993,183.989,119.993z"/>
	<path style="fill:#3A3847;" d="M183.989,8H87.995c-2.211,0-4-1.789-4-4s1.789-4,4-4h95.994c2.211,0,4,1.789,4,4S186.2,8,183.989,8z
		"/>
	<path style="fill:#3A3847;" d="M183.989,119.993H87.995c-2.211,0-4-1.789-4-4s1.789-4,4-4h95.994c2.211,0,4,1.789,4,4
		S186.2,119.993,183.989,119.993z"/>
	<path style="fill:#3A3847;" d="M111.994,39.998c-2.21,0-4-1.789-4-4V4.001c0-2.211,1.789-4,4-4s4,1.789,4,4v31.998
		C115.993,38.209,114.204,39.998,111.994,39.998z"/>
	<path style="fill:#3A3847;" d="M159.991,39.998c-2.21,0-4-1.789-4-4V4.001c0-2.211,1.789-4,4-4s4,1.789,4,4v31.998
		C163.99,38.209,162.201,39.998,159.991,39.998z"/>
	<path style="fill:#3A3847;" d="M135.992,23.999c-2.211,0-4-1.789-4-4V4.001c0-2.211,1.789-4,4-4s4,1.789,4,4V20
		C139.992,22.21,138.203,23.999,135.992,23.999z"/>
	<path style="fill:#3A3847;" d="M119.993,79.996c-2.211,0-4-1.789-4-4V35.999c0-2.211,1.789-4,4-4s4,1.789,4,4v39.997
		C123.993,78.207,122.204,79.996,119.993,79.996z"/>
	<path style="fill:#3A3847;" d="M151.991,79.996c-2.211,0-4-1.789-4-4V35.999c0-2.211,1.789-4,4-4s4,1.789,4,4v39.997
		C155.991,78.207,154.202,79.996,151.991,79.996z"/>
	<path style="fill:#3A3847;" d="M151.991,79.996h-31.998c-2.211,0-4-1.789-4-4c0-2.21,1.789-4,4-4h31.998c2.211,0,4,1.789,4,4
		S154.202,79.996,151.991,79.996z"/>
	<path style="fill:#3A3847;" d="M151.991,39.998h-31.998c-2.211,0-4-1.789-4-4s1.789-4,4-4h31.998c2.211,0,4,1.789,4,4
		S154.202,39.998,151.991,39.998z"/>
	<path style="fill:#3A3847;" d="M99.994,119.993c-2.21,0-4-1.789-4-4V91.995c0-2.21,1.789-4,4-4s4,1.789,4,4v23.999
		C103.994,118.204,102.205,119.993,99.994,119.993z"/>
	<path style="fill:#3A3847;" d="M171.99,119.993c-2.211,0-4-1.789-4-4V91.995c0-2.21,1.789-4,4-4c2.21,0,4,1.789,4,4v23.999
		C175.99,118.204,174.201,119.993,171.99,119.993z"/>
	<path style="fill:#3A3847;" d="M119.993,375.977c-2.211,0-4-1.789-4-3.999V123.993c0-2.21,1.789-4,4-4s4,1.789,4,4v247.985
		C123.993,374.188,122.204,375.977,119.993,375.977z"/>
	<path style="fill:#3A3847;" d="M151.991,375.977c-2.211,0-4-1.789-4-3.999V123.993c0-2.21,1.789-4,4-4s4,1.789,4,4v247.985
		C155.991,374.188,154.202,375.977,151.991,375.977z"/>
	<path style="fill:#3A3847;" d="M327.98,119.993c-2.211,0-4-1.789-4-4V4.001c0-2.211,1.789-4,4-4s4,1.789,4,4v111.993
		C331.98,118.204,330.191,119.993,327.98,119.993z"/>
	<path style="fill:#3A3847;" d="M423.974,119.993c-2.211,0-4-1.789-4-4V4.001c0-2.211,1.789-4,4-4s4,1.789,4,4v111.993
		C427.974,118.204,426.185,119.993,423.974,119.993z"/>
	<path style="fill:#3A3847;" d="M423.974,8H327.98c-2.211,0-4-1.789-4-4s1.789-4,4-4h95.994c2.211,0,4,1.789,4,4
		S426.185,8,423.974,8z"/>
	<path style="fill:#3A3847;" d="M423.974,119.993H327.98c-2.211,0-4-1.789-4-4s1.789-4,4-4h95.994c2.211,0,4,1.789,4,4
		S426.185,119.993,423.974,119.993z"/>
	<path style="fill:#3A3847;" d="M351.978,39.998c-2.211,0-4-1.789-4-4V4.001c0-2.211,1.789-4,4-4s4,1.789,4,4v31.998
		C355.978,38.209,354.189,39.998,351.978,39.998z"/>
	<path style="fill:#3A3847;" d="M399.974,39.998c-2.209,0-3.998-1.789-3.998-4V4.001c0-2.211,1.789-4,3.998-4c2.211,0,4,1.789,4,4
		v31.998C403.974,38.209,402.185,39.998,399.974,39.998z"/>
	<path style="fill:#3A3847;" d="M375.977,23.999c-2.211,0-4-1.789-4-4V4.001c0-2.211,1.789-4,4-4s4,1.789,4,4V20
		C379.977,22.21,378.188,23.999,375.977,23.999z"/>
	<path style="fill:#3A3847;" d="M359.978,79.996c-2.211,0-4-1.789-4-4V35.999c0-2.211,1.789-4,4-4s4,1.789,4,4v39.997
		C363.978,78.207,362.189,79.996,359.978,79.996z"/>
	<path style="fill:#3A3847;" d="M391.977,79.996c-2.211,0-4-1.789-4-4V35.999c0-2.211,1.789-4,4-4s4,1.789,4,4v39.997
		C395.977,78.207,394.188,79.996,391.977,79.996z"/>
	<path style="fill:#3A3847;" d="M391.977,79.996h-31.998c-2.211,0-4-1.789-4-4c0-2.21,1.789-4,4-4h31.998c2.211,0,4,1.789,4,4
		S394.188,79.996,391.977,79.996z"/>
	<path style="fill:#3A3847;" d="M391.977,39.998h-31.998c-2.211,0-4-1.789-4-4s1.789-4,4-4h31.998c2.211,0,4,1.789,4,4
		S394.188,39.998,391.977,39.998z"/>
	<path style="fill:#3A3847;" d="M339.978,119.993c-2.211,0-4-1.789-4-4V91.995c0-2.21,1.789-4,4-4s4,1.789,4,4v23.999
		C343.978,118.204,342.189,119.993,339.978,119.993z"/>
	<path style="fill:#3A3847;" d="M411.974,119.993c-2.211,0-4-1.789-4-4V91.995c0-2.21,1.789-4,4-4s4,1.789,4,4v23.999
		C415.974,118.204,414.185,119.993,411.974,119.993z"/>
	<path style="fill:#3A3847;" d="M359.978,263.985c-2.211,0-4-1.789-4-4V123.993c0-2.21,1.789-4,4-4s4,1.789,4,4v135.992
		C363.978,262.196,362.189,263.985,359.978,263.985z"/>
	<path style="fill:#3A3847;" d="M391.977,311.981c-2.211,0-4-1.789-4-3.999V123.993c0-2.21,1.789-4,4-4s4,1.789,4,4v183.989
		C395.977,310.192,394.188,311.981,391.977,311.981z"/>
	<path style="fill:#3A3847;" d="M255.985,511.969c-77.191,0-139.992-62.801-139.992-139.991c0-2.211,1.789-4,4-4s4,1.789,4,4
		c0,72.776,59.211,131.991,131.992,131.991c72.777,0,131.992-59.215,131.992-131.991c0-72.777-59.215-131.992-131.992-131.992
		c-31.271,0-61.602,11.14-85.405,31.357c-1.695,1.438-4.211,1.227-5.637-0.461c-1.434-1.68-1.227-4.203,0.457-5.632
		c25.249-21.452,57.418-33.264,90.584-33.264c77.191,0,139.992,62.801,139.992,139.992S333.176,511.969,255.985,511.969z"/>
	<path style="fill:#3A3847;" d="M255.985,479.971c-59.547,0-107.994-48.442-107.994-107.993c0-2.211,1.789-4,4-4s4,1.789,4,4
		c0,55.137,44.856,99.993,99.994,99.993c55.137,0,99.994-44.856,99.994-99.993c0-55.138-44.857-99.994-99.994-99.994
		c-34.509,0-66.14,17.46-84.612,46.692c-1.18,1.875-3.641,2.43-5.52,1.25c-1.867-1.18-2.426-3.648-1.246-5.516
		c19.949-31.575,54.107-50.425,91.378-50.425c59.543,0,107.994,48.441,107.994,107.993
		C363.978,431.529,315.527,479.971,255.985,479.971z"/>
</g>
<g>
</g>
<g>
</g>
<g>
</g>
<g>
</g>
<g>
</g>
<g>
</g>
<g>
</g>
<g>
</g>
<g>
</g>
<g>
</g>
<g>
</g>
<g>
</g>
<g>
</g>
<g>
</g>
<g>
</g>
</svg>
